<?xml version="1.0" standalone="no"?>
<!DOCTYPE svg PUBLIC "-//W3C//DTD SVG 20010904//EN"
 "http://www.w3.org/TR/2001/REC-SVG-20010904/DTD/svg10.dtd">
<svg version="1.0" xmlns="http://www.w3.org/2000/svg"
 width="357.000000pt" height="367.000000pt" viewBox="0 0 357.000000 367.000000"
 preserveAspectRatio="xMidYMid meet">

<g transform="translate(0.000000,367.000000) scale(0.100000,-0.100000)"
fill="#000000" stroke="none">
<path d="M1610 3454 c-585 -73 -1073 -406 -1338 -914 -111 -213 -179 -458
-189 -683 l-6 -128 59 3 59 3 12 132 c21 243 69 408 175 614 327 636 1040 969
1748 817 273 -58 555 -212 763 -416 225 -220 397 -544 454 -852 24 -133 24
-419 -1 -555 -38 -212 -145 -465 -273 -645 -94 -131 -310 -347 -328 -328 -3 3
-53 130 -111 284 -58 153 -141 371 -184 484 -43 113 -152 401 -243 640 -91
239 -213 561 -272 715 -59 154 -114 299 -122 323 -8 23 -18 42 -21 41 -4 0
-46 -82 -95 -182 -48 -100 -184 -379 -302 -620 -118 -241 -215 -442 -215 -448
0 -6 27 -9 67 -7 l67 3 230 473 c126 260 233 469 237 465 3 -5 16 -33 27 -63
40 -106 290 -766 492 -1295 67 -176 158 -414 201 -530 154 -406 182 -475 191
-475 32 0 210 144 323 262 229 239 374 514 447 848 19 91 22 134 23 330 0 240
-7 296 -61 480 -38 128 -60 184 -116 293 -246 479 -675 802 -1204 907 -106 21
-400 35 -494 24z"/>
<path d="M87 1603 c-8 -13 21 -191 48 -290 77 -291 231 -556 449 -772 53 -52
98 -93 100 -90 6 6 436 889 436 895 0 2 -31 4 -69 4 l-68 0 -28 -62 c-65 -144
-305 -623 -313 -623 -15 0 -113 118 -178 216 -104 157 -212 413 -230 547 l-7
52 937 0 c515 0 936 1 936 3 0 1 -10 30 -23 62 l-23 60 -981 3 c-540 1 -984
-1 -986 -5z"/>
<path d="M821 442 c-39 -77 -39 -75 50 -132 301 -193 690 -290 1042 -261 203
17 406 69 578 148 70 32 80 39 75 58 -7 27 -35 95 -40 95 -2 0 -41 -17 -87
-39 -110 -50 -218 -86 -343 -113 -86 -19 -132 -22 -311 -22 -228 0 -327 14
-494 71 -111 37 -290 124 -376 182 l-75 50 -19 -37z"/>
</g>
</svg>
