<svg xmlns="http://www.w3.org/2000/svg" xmlns:xlink="http://www.w3.org/1999/xlink" width="88" height="88" viewBox="0 0 88 88"><defs><linearGradient id="a" x1="-0.241" y1="1.029" x2="0.872" y2="0.127" gradientUnits="objectBoundingBox"><stop offset="0" stop-color="#ba03f2"/><stop offset="0.468" stop-color="#5889af"/><stop offset="1" stop-color="#13e780"/></linearGradient></defs><path d="M-1010.127,541.543a43.86,43.86,0,0,1-13.986-9.43,43.844,43.844,0,0,1-9.429-13.986A43.709,43.709,0,0,1-1037,501a43.713,43.713,0,0,1,3.458-17.127,43.844,43.844,0,0,1,9.429-13.986,43.843,43.843,0,0,1,13.986-9.429A43.714,43.714,0,0,1-993,457a43.71,43.71,0,0,1,17.126,3.458,43.844,43.844,0,0,1,13.986,9.429,43.862,43.862,0,0,1,9.43,13.986A43.73,43.73,0,0,1-949,501a43.726,43.726,0,0,1-3.458,17.126,43.862,43.862,0,0,1-9.43,13.986,43.851,43.851,0,0,1-13.986,9.43A43.725,43.725,0,0,1-993,545,43.729,43.729,0,0,1-1010.127,541.543ZM-1033,501a40.046,40.046,0,0,0,40,40,40.046,40.046,0,0,0,40-40,40.046,40.046,0,0,0-40-40A40.046,40.046,0,0,0-1033,501Zm28,14V487h12.56q4.8,0,7.421,1.92a6.231,6.231,0,0,1,2.62,5.321,6.915,6.915,0,0,1-1.021,3.8,6.64,6.64,0,0,1-2.74,2.44,7.178,7.178,0,0,1,3.84,2.46,7.057,7.057,0,0,1,1.4,4.5,6.47,6.47,0,0,1-2.74,5.6q-2.74,1.96-7.98,1.96Zm4-3.24h9.2a9.475,9.475,0,0,0,5.12-1.12,3.9,3.9,0,0,0,1.72-3.52q0-4.68-6.84-4.68h-9.2Zm0-12.56h8.2a8.331,8.331,0,0,0,4.74-1.14,3.794,3.794,0,0,0,1.66-3.34,3.794,3.794,0,0,0-1.66-3.34,8.324,8.324,0,0,0-4.74-1.14h-8.2Z" transform="translate(1037 -457)" fill="url(#a)"/></svg>