<svg xmlns="http://www.w3.org/2000/svg" xmlns:xlink="http://www.w3.org/1999/xlink" width="88" height="88" viewBox="0 0 88 88"><defs><linearGradient id="a" x1="-0.241" y1="1.029" x2="0.872" y2="0.127" gradientUnits="objectBoundingBox"><stop offset="0" stop-color="#ba03f2"/><stop offset="0.468" stop-color="#5889af"/><stop offset="1" stop-color="#13e780"/></linearGradient></defs><path d="M-1010.127,541.543a43.86,43.86,0,0,1-13.986-9.43,43.844,43.844,0,0,1-9.429-13.986A43.709,43.709,0,0,1-1037,501a43.713,43.713,0,0,1,3.458-17.127,43.844,43.844,0,0,1,9.429-13.986,43.843,43.843,0,0,1,13.986-9.429A43.714,43.714,0,0,1-993,457a43.71,43.71,0,0,1,17.126,3.458,43.844,43.844,0,0,1,13.986,9.429,43.862,43.862,0,0,1,9.43,13.986A43.73,43.73,0,0,1-949,501a43.726,43.726,0,0,1-3.458,17.126,43.862,43.862,0,0,1-9.43,13.986,43.851,43.851,0,0,1-13.986,9.43A43.725,43.725,0,0,1-993,545,43.729,43.729,0,0,1-1010.127,541.543ZM-1033,501a40.046,40.046,0,0,0,40,40,40.046,40.046,0,0,0,40-40,40.046,40.046,0,0,0-40-40A40.046,40.046,0,0,0-1033,501Zm56.384,9.128a10.012,10.012,0,0,1-3.7-2.032l1.183-2.5a9.816,9.816,0,0,0,3.281,1.872,12.054,12.054,0,0,0,4.111.72,7.411,7.411,0,0,0,4.161-.944,2.911,2.911,0,0,0,1.376-2.512,2.474,2.474,0,0,0-.752-1.872,5.025,5.025,0,0,0-1.856-1.1q-1.1-.383-3.12-.864a32.147,32.147,0,0,1-4.08-1.216,6.744,6.744,0,0,1-2.656-1.872,5,5,0,0,1-1.1-3.408,5.769,5.769,0,0,1,.944-3.232,6.488,6.488,0,0,1,2.864-2.3,11.617,11.617,0,0,1,4.768-.864,15.1,15.1,0,0,1,3.9.512,10.383,10.383,0,0,1,3.3,1.472l-1.056,2.56a11.579,11.579,0,0,0-3.009-1.36,11.213,11.213,0,0,0-3.136-.464,6.906,6.906,0,0,0-4.08.993,3.037,3.037,0,0,0-1.361,2.56,2.449,2.449,0,0,0,.769,1.872,5.345,5.345,0,0,0,1.9,1.12,29.936,29.936,0,0,0,3.088.848,31.142,31.142,0,0,1,4.064,1.216,6.834,6.834,0,0,1,2.64,1.856,4.888,4.888,0,0,1,1.1,3.36,5.723,5.723,0,0,1-.96,3.217,6.43,6.43,0,0,1-2.911,2.3,12.05,12.05,0,0,1-4.8.848A15.324,15.324,0,0,1-976.616,510.128Zm-19.872,0a10.012,10.012,0,0,1-3.7-2.032l1.184-2.5a9.815,9.815,0,0,0,3.28,1.872,12.054,12.054,0,0,0,4.111.72,7.411,7.411,0,0,0,4.161-.944,2.911,2.911,0,0,0,1.376-2.512,2.474,2.474,0,0,0-.752-1.872,5.025,5.025,0,0,0-1.856-1.1q-1.1-.383-3.12-.864a32.146,32.146,0,0,1-4.08-1.216,6.744,6.744,0,0,1-2.656-1.872,5,5,0,0,1-1.1-3.408,5.769,5.769,0,0,1,.944-3.232,6.487,6.487,0,0,1,2.864-2.3,11.617,11.617,0,0,1,4.768-.864,15.1,15.1,0,0,1,3.9.512,10.383,10.383,0,0,1,3.3,1.472l-1.056,2.56a11.58,11.58,0,0,0-3.009-1.36,11.213,11.213,0,0,0-3.136-.464,6.906,6.906,0,0,0-4.08.993,3.037,3.037,0,0,0-1.361,2.56,2.449,2.449,0,0,0,.769,1.872,5.345,5.345,0,0,0,1.9,1.12,29.945,29.945,0,0,0,3.088.848,31.136,31.136,0,0,1,4.064,1.216,6.834,6.834,0,0,1,2.64,1.856,4.888,4.888,0,0,1,1.1,3.36,5.716,5.716,0,0,1-.96,3.217,6.43,6.43,0,0,1-2.911,2.3,12.05,12.05,0,0,1-4.8.848A15.328,15.328,0,0,1-996.488,510.128Zm-20.736-.7a10.96,10.96,0,0,1-4.24-4.1,11.352,11.352,0,0,1-1.536-5.872,11.347,11.347,0,0,1,1.536-5.872,10.917,10.917,0,0,1,4.256-4.1,12.452,12.452,0,0,1,6.08-1.489,12.689,12.689,0,0,1,4.8.88,9.818,9.818,0,0,1,3.712,2.608l-2.08,2.016a8.342,8.342,0,0,0-6.3-2.656,9.132,9.132,0,0,0-4.513,1.12,8.127,8.127,0,0,0-3.152,3.088,8.647,8.647,0,0,0-1.136,4.4,8.645,8.645,0,0,0,1.136,4.4,8.128,8.128,0,0,0,3.152,3.088,9.132,9.132,0,0,0,4.513,1.121,8.363,8.363,0,0,0,6.3-2.688l2.08,2.016a9.939,9.939,0,0,1-3.728,2.624,12.606,12.606,0,0,1-4.816.9A12.369,12.369,0,0,1-1017.224,509.424Z" transform="translate(1037 -457)" fill="url(#a)"/></svg>