<svg xmlns="http://www.w3.org/2000/svg" xmlns:xlink="http://www.w3.org/1999/xlink" width="88" height="88" viewBox="0 0 88 88"><defs><linearGradient id="a" x1="-0.241" y1="1.029" x2="0.872" y2="0.127" gradientUnits="objectBoundingBox"><stop offset="0" stop-color="#ba03f2"/><stop offset="0.468" stop-color="#5889af"/><stop offset="1" stop-color="#13e780"/></linearGradient></defs><path d="M-1010.127,541.543a43.86,43.86,0,0,1-13.986-9.43,43.863,43.863,0,0,1-9.43-13.986A43.725,43.725,0,0,1-1037,501a43.729,43.729,0,0,1,3.457-17.127,43.863,43.863,0,0,1,9.43-13.986,43.843,43.843,0,0,1,13.986-9.429A43.714,43.714,0,0,1-993,457a43.71,43.71,0,0,1,17.126,3.458,43.844,43.844,0,0,1,13.986,9.429,43.862,43.862,0,0,1,9.43,13.986A43.73,43.73,0,0,1-949,501a43.726,43.726,0,0,1-3.458,17.126,43.862,43.862,0,0,1-9.43,13.986,43.861,43.861,0,0,1-13.986,9.43A43.728,43.728,0,0,1-993,545,43.729,43.729,0,0,1-1010.127,541.543ZM-1033,501a40.046,40.046,0,0,0,40,40,40.046,40.046,0,0,0,40-40,40.046,40.046,0,0,0-40-40A40.046,40.046,0,0,0-1033,501Zm33.19,16.42a12.682,12.682,0,0,1-4.56-2.5l1.84-3.16a10.576,10.576,0,0,0,3.68,2.18,13.637,13.637,0,0,0,4.721.82,7.873,7.873,0,0,0,4.9-1.34,4.369,4.369,0,0,0,1.741-3.659,4.32,4.32,0,0,0-1.921-3.82q-1.92-1.3-6.56-1.3h-6.359l1.48-14.64h15.8v3.48h-12.441l-.76,7.68h3.12q6,0,8.82,2.26a7.492,7.492,0,0,1,2.82,6.18,8.541,8.541,0,0,1-1.18,4.46,8.04,8.04,0,0,1-3.56,3.12,13.51,13.51,0,0,1-5.86,1.14A18.349,18.349,0,0,1-999.81,517.42ZM-983.461,486v-7h1v6.13h3.791V486Zm-3.06,0-.01-5.1-2.53,4.25h-.46l-2.53-4.22V486h-.96v-7h.82l2.92,4.919,2.88-4.919h.82l.01,7Zm-10.97,0v-6.131h-2.4V479h5.79v.869h-2.4V486Zm-4.49,0v-3.12H-1006V486h-1v-7h1v3.01h4.019V479h1v7Z" transform="translate(1037 -457)" fill="url(#a)"/></svg>