<svg xmlns="http://www.w3.org/2000/svg" xmlns:xlink="http://www.w3.org/1999/xlink" width="88" height="88" viewBox="0 0 88 88"><defs><linearGradient id="a" x1="-0.241" y1="1.029" x2="0.872" y2="0.127" gradientUnits="objectBoundingBox"><stop offset="0" stop-color="#ba03f2"/><stop offset="0.468" stop-color="#5889af"/><stop offset="1" stop-color="#13e780"/></linearGradient></defs><path d="M-1010.127,541.543a43.86,43.86,0,0,1-13.986-9.43,43.863,43.863,0,0,1-9.43-13.986A43.725,43.725,0,0,1-1037,501a43.729,43.729,0,0,1,3.457-17.127,43.863,43.863,0,0,1,9.43-13.986,43.843,43.843,0,0,1,13.986-9.429A43.714,43.714,0,0,1-993,457a43.71,43.71,0,0,1,17.126,3.458,43.844,43.844,0,0,1,13.986,9.429,43.862,43.862,0,0,1,9.43,13.986A43.73,43.73,0,0,1-949,501a43.726,43.726,0,0,1-3.458,17.126,43.862,43.862,0,0,1-9.43,13.986,43.861,43.861,0,0,1-13.986,9.43A43.728,43.728,0,0,1-993,545,43.729,43.729,0,0,1-1010.127,541.543ZM-1033,501a40.046,40.046,0,0,0,40,40,40.046,40.046,0,0,0,40-40,40.046,40.046,0,0,0-40-40A40.046,40.046,0,0,0-1033,501Zm43.712,9.128a10.024,10.024,0,0,1-3.7-2.032l1.184-2.5a9.821,9.821,0,0,0,3.28,1.872,12.063,12.063,0,0,0,4.112.72,7.407,7.407,0,0,0,4.16-.944,2.909,2.909,0,0,0,1.376-2.512,2.473,2.473,0,0,0-.751-1.872,5.033,5.033,0,0,0-1.856-1.1q-1.1-.383-3.12-.864a32.166,32.166,0,0,1-4.081-1.216,6.75,6.75,0,0,1-2.656-1.872,5,5,0,0,1-1.1-3.408,5.762,5.762,0,0,1,.944-3.232,6.488,6.488,0,0,1,2.864-2.3,11.617,11.617,0,0,1,4.768-.864,15.1,15.1,0,0,1,3.9.512,10.388,10.388,0,0,1,3.3,1.472l-1.057,2.56a11.588,11.588,0,0,0-3.008-1.36,11.218,11.218,0,0,0-3.136-.464,6.911,6.911,0,0,0-4.081.993,3.039,3.039,0,0,0-1.36,2.56,2.449,2.449,0,0,0,.769,1.872,5.337,5.337,0,0,0,1.9,1.12,29.874,29.874,0,0,0,3.088.848,31.285,31.285,0,0,1,4.064,1.216,6.847,6.847,0,0,1,2.64,1.856,4.888,4.888,0,0,1,1.1,3.36,5.723,5.723,0,0,1-.96,3.217,6.435,6.435,0,0,1-2.911,2.3,12.05,12.05,0,0,1-4.8.848A15.324,15.324,0,0,1-989.288,510.128Zm-18.928-.064A7.123,7.123,0,0,1-1011,507.68l1.857-2.176a5.526,5.526,0,0,0,4.672,2.656,3.542,3.542,0,0,0,2.864-1.152,5.125,5.125,0,0,0,.977-3.392V491.04h-8.1v-2.784h11.264v15.2a7.833,7.833,0,0,1-1.777,5.584,6.875,6.875,0,0,1-5.232,1.872A8.385,8.385,0,0,1-1008.216,510.064Z" transform="translate(1037 -457)" fill="url(#a)"/></svg>